<?xml version="1.0" encoding="UTF-8" standalone="no"?>
<!DOCTYPE svg PUBLIC "-//W3C//DTD SVG 1.1//EN" "http://www.w3.org/Graphics/SVG/1.1/DTD/svg11.dtd">
<svg version="1.1" xmlns="http://www.w3.org/2000/svg" xmlns:xlink="http://www.w3.org/1999/xlink" preserveAspectRatio="xMidYMid meet" viewBox="0 0 640 640" width="24" height="24"><defs><path d="M0 0L24 0L24 24L0 24L0 0Z" id="bADbwH7wA"></path><path d="M13.21 17.38C13.43 17.16 15.19 15.4 15.41 15.18C15.68 14.91 16.08 14.82 16.43 14.94C17.55 15.31 18.76 15.51 20 15.51C20.55 15.51 21 15.96 21 16.51C21 16.86 21 19.65 21 20C21 20.55 20.55 21 20 21C10.61 21 3 13.39 3 4C3 3.45 3.45 3 4 3C4.35 3 7.15 3 7.5 3C8.05 3 8.5 3.45 8.5 4C8.5 5.25 8.7 6.45 9.07 7.57C9.18 7.92 9.1 8.31 8.82 8.59C8.67 8.74 7.94 9.47 6.62 10.79C9.13 14.22 11.32 16.41 13.21 17.38Z" id="aFhUAdNxw"></path></defs><g><g><g><use xlink:href="#bADbwH7wA" opacity="1" fill="#000000" fill-opacity="0"></use><g><use xlink:href="#bADbwH7wA" opacity="1" fill-opacity="0" stroke="#000000" stroke-width="1" stroke-opacity="0"></use></g></g><g><use xlink:href="#aFhUAdNxw" opacity="1" fill="#ffffff" fill-opacity="1"></use><g><use xlink:href="#aFhUAdNxw" opacity="1" fill-opacity="0" stroke="#000000" stroke-width="1" stroke-opacity="0"></use></g></g></g></g></svg>